# xmcd
#
# Track frame offsets:
#	150
#	16807
#	22254
#	23825
#	28141
#	32109
#	44980
#	47047
#	54954
#	58384
#	62708
#	67408
#	69905
#	77642
#	82678
#	95439
#	104577
#	113271
#	124417
#	127233
#
# Disc length: 1805 seconds
#
# Revision: 1
# Processed by: cddbd v1.5.2PL0 Copyright (c) Steve Scherf et al.
# Submitted via: audiograbber 1.83.01
#
DISCID=1f070b14
DTITLE=Les petits loups du Jazz - Fiesta
DYEAR=1900
DGENRE=Comptine
TTITLE0=Sur le pont d'Avignon
TTITLE1=A mon beau chateau
TTITLE2=Bonjour ma cousine
TTITLE3=Sur mon chemin
TTITLE4=J'aime la galette
TTITLE5=Nous n'irons plus aux bois
TTITLE6=Passe, passe, passera
TTITLE7=Jean Petit qui danse
TTITLE8=Le palais Royal
TTITLE9=On m'a donné un mari
TTITLE10=Savez-vous planter les choux
TTITLE11=Dansons la capucine
TTITLE12=J'ai descendu dans mon jardin
TTITLE13=Le berger dans son pré
TTITLE14=Guilleri
TTITLE15=Pirouette Cacahouete
TTITLE16=Sur le pont du Nord
TTITLE17=Un Crocodile s'en allait à la guerre
TTITLE18=C'est Gugusse
TTITLE19=La Carmagnole
EXTD=
EXTT0=
EXTT1=
EXTT2=
EXTT3=
EXTT4=
EXTT5=
EXTT6=
EXTT7=
EXTT8=
EXTT9=
EXTT10=
EXTT11=
EXTT12=
EXTT13=
EXTT14=
EXTT15=
EXTT16=
EXTT17=
EXTT18=
EXTT19=
PLAYORDER=
